<svg xmlns="http://www.w3.org/2000/svg" viewBox="0 0 128 128" width="128" height="128">
  <defs>
    <linearGradient id="dataFlowGradient" x1="0%" y1="0%" x2="100%" y2="100%">
      <stop offset="0%" style="stop-color:#A9A9A9;stop-opacity:1" /> <stop offset="50%" style="stop-color:#4facfe;stop-opacity:1" /> <stop offset="100%" style="stop-color:#00f2fe;stop-opacity:1" /> </linearGradient>
    <solidColor id="filteredTreeColor" solid-color="#00f2fe" />
  </defs>

  <g transform="translate(16, 10)" opacity="0.7">
    <rect x="10" y="5" width="8" height="8" fill="url(#dataFlowGradient)" rx="1"/>
    <circle cx="35" cy="12" r="4" fill="url(#dataFlowGradient)"/>
    <polygon points="60,5 65,15 55,15" fill="url(#dataFlowGradient)"/>
    <rect x="80" y="8" width="6" height="6" fill="url(#dataFlowGradient)" rx="1"/>

    <path d="M5,25 L45,55" stroke="url(#dataFlowGradient)" stroke-width="3" stroke-linecap="round"/>
    <path d="M95,25 L55,55" stroke="url(#dataFlowGradient)" stroke-width="3" stroke-linecap="round"/>

    <line x1="5" y1="25" x2="95" y2="25" stroke="url(#dataFlowGradient)" stroke-width="3" stroke-linecap="round"/>
  </g>

  <g transform="translate(46, 55)">
    <rect x="0" y="0" width="36" height="10" fill="none" stroke="#4facfe" stroke-width="3" rx="2"/>
    <line x1="12" y1="0" x2="12" y2="10" stroke="#4facfe" stroke-width="2"/>
    <line x1="24" y1="0" x2="24" y2="10" stroke="#4facfe" stroke-width="2"/>
  </g>

  <g transform="translate(46, 70)" stroke="url(#filteredTreeColor)" fill="none" stroke-width="4" stroke-linecap="round" stroke-linejoin="round">
    <path d="M18,0 L18,10" />

    <rect x="14" y="10" width="8" height="8" fill="url(#filteredTreeColor)" stroke="none" rx="1"/> <path d="M18,18 L18,28" />

    <path d="M18,28 L50,28" /> <path d="M18,28 L18,42" /> <g transform="translate(50, 24)">
        <rect x="0" y="0" width="8" height="8" fill="url(#filteredTreeColor)" stroke="none" rx="1"/>
        <path d="M4,8 L4,16 L20,16" stroke-width="3"/>
        <rect x="20" y="12" width="6" height="6" fill="url(#filteredTreeColor)" stroke="none" rx="1"/>
    </g>

    <g transform="translate(14, 42)">
        <rect x="0" y="0" width="8" height="8" fill="url(#filteredTreeColor)" stroke="none" rx="1"/>
    </g>
  </g>

</svg>
